{"title":"Black Mass 2015 HC 1080p","uid":12519696,"size":3875573686,"categoryP":"video","categoryS":"hd___movies","magnet":"?xt=urn:btih:e5ddcfac36cd6f856dd0352456346fdb74834199&amp;dn=Black+Mass+2015+HC+1080p+&amp;tr=udp%3A%2F%2Ftracker.leechers-paradise.org%3A6969&amp;tr=udp%3A%2F%2Fzer0day.ch%3A1337&amp;tr=udp%3A%2F%2Fopen.demonii.com%3A1337&amp;tr=udp%3A%2F%2Ftracker.coppersurfer.tk%3A6969&amp;tr=udp%3A%2F%2Fexodus.desync.com%3A6969","seeders":1,"leechers":7,"uploader":"Joker__TPB","files":4,"time":1443844551,"description":"===================================================================================\r\nJohn Connolly and James &quot;Whitey&quot; Bulger grew up together on the streets of South Boston. Decades later| in the late 1970s| they would meet again. By then| Connolly\r\nwas a major figure in the FBI's Boston office and Whitey had become godfather of the Irish Mob. What happened between them - a dirty deal to trade secrets and take\r\ndown Boston's Italian Mafia in the process - would spiral out of control| leading to murders| drug dealing| racketeering indictments| and| ultimately| to Bulger\r\nmaking the FBI's Ten Most Wanted List.\r\n===================================================================================\r\nVideo\r\nID                                       : 1\r\nFormat                                   : AVC\r\nFormat/Info                              : Advanced Video Codec\r\nFormat profile                           :   \r\nFormat settings, CABAC                   : Yes\r\nFormat settings, ReFrames                : 4 frames\r\nCodec ID                                 : avc1\r\nCodec ID/Info                            : Advanced Video Coding\r\nDuration                                 : 2h 2mn\r\nBit rate                                 : 4 000 Kbps\r\nWidth                                    : 1 920 pixels\r\nHeight                                   : 792 pixels\r\nDisplay aspect ratio                     : 2.40:1\r\nFrame rate mode                          : Constant\r\nFrame rate                               : 23.976 fps\r\nColor space                              : YUV\r\nChroma subsampling                       : 4:2:0\r\nBit depth                                : 8 bits\r\nScan type                                : Progressive\r\nBits/(Pixel*Frame)                       : 0.110\r\nStream size                              : 3.41 GiB (95%)\r\nTitle                                    : Black.Mass.2015.1080p.HC.WEBRip.x264.AAC2.0-RARBG\r\nWriting library                          : x264 core 146 r2555 0c21480\r\nEncoding settings                        : cabac=1 / ref=4 / deblock=1:-2:-2 / analyse=0x3:0x113 / me=umh / subme=7 / psy=1 / psy_rd=1.00:0.15 / mixed_ref=1 / me_range=16 / chroma_me=1 / trellis=2 / 8x8dct=1 / cqm=0 / deadzone=21,11 / fast_pskip=1 / chroma_qp_offset=-3 / threads=8 / lookahead_threads=2 / sliced_threads=0 / nr=0 / decimate=1 / interlaced=0 / bluray_compat=0 / constrained_intra=0 / bframes=3 / b_pyramid=2 / b_adapt=2 / b_bias=0 / direct=3 / weightb=1 / open_gop=0 / weightp=2 / keyint=250 / keyint_min=25 / scenecut=40 / intra_refresh=0 / rc_lookahead=50 / rc=abr / mbtree=1 / bitrate=4000 / ratetol=1.0 / qcomp=0.60 / qpmin=0 / qpmax=69 / qpstep=4 / vbv_maxrate=31250 / vbv_bufsize=31250 / nal_hrd=none / filler=0 / ip_ratio=1.40 / aq=1:1.00\r\n\r\nAudio\r\nID                                       : 2\r\nFormat                                   : AAC\r\nFormat/Info                              : Advanced Audio Codec\r\nFormat profile                           : LC\r\nCodec ID                                 : 40\r\nDuration                                 : 2h 2mn\r\nBit rate mode                            : Variable\r\nBit rate                                 : 224 Kbps\r\nMaximum bit rate                         : 31.3 Mbps\r\nChannel(s)                               : 2 channels\r\nChannel positions                        : Front: L R\r\nSampling rate                            : 48.0 KHz\r\nCompression mode                         : Lossy\r\nStream size                              : 196 MiB (5%)\r\nLanguage                                 : unk\r\n===================================================================================","torrent":{"xt":"urn:btih:e5ddcfac36cd6f856dd0352456346fdb74834199","amp;dn":"Black+Mass+2015+HC+1080p+","amp;tr":["udp%3A%2F%2Ftracker.leechers-paradise.org%3A6969","udp%3A%2F%2Fzer0day.ch%3A1337","udp%3A%2F%2Fopen.demonii.com%3A1337","udp%3A%2F%2Ftracker.coppersurfer.tk%3A6969","udp%3A%2F%2Fexodus.desync.com%3A6969"],"infoHash":"e5ddcfac36cd6f856dd0352456346fdb74834199","infoHashBuffer":{"type":"Buffer","data":[229,221,207,172,54,205,111,133,109,208,53,36,86,52,111,219,116,131,65,153]},"announce":[],"urlList":[]}}